<?xml version="1.0" encoding="UTF-8"?>
<svg xmlns="http://www.w3.org/2000/svg" xmlns:xlink="http://www.w3.org/1999/xlink" width="93.14" height="12.785" viewBox="0 0 93.14 12.785">
<defs>
<g>
<g id="glyph-0-0">
<path d="M 6 -5.921875 C 6 -6.28125 6.03125 -6.390625 6.78125 -6.390625 L 7.015625 -6.390625 L 7.015625 -6.6875 C 6.671875 -6.65625 5.953125 -6.65625 5.578125 -6.65625 C 5.203125 -6.65625 4.46875 -6.65625 4.125 -6.6875 L 4.125 -6.390625 L 4.359375 -6.390625 C 5.109375 -6.390625 5.140625 -6.28125 5.140625 -5.921875 L 5.140625 -3.640625 L 2.203125 -3.640625 L 2.203125 -5.921875 C 2.203125 -6.28125 2.21875 -6.390625 2.984375 -6.390625 L 3.21875 -6.390625 L 3.21875 -6.6875 C 2.875 -6.65625 2.140625 -6.65625 1.765625 -6.65625 C 1.40625 -6.65625 0.671875 -6.65625 0.328125 -6.6875 L 0.328125 -6.390625 L 0.5625 -6.390625 C 1.3125 -6.390625 1.328125 -6.28125 1.328125 -5.921875 L 1.328125 -0.765625 C 1.328125 -0.40625 1.3125 -0.296875 0.5625 -0.296875 L 0.328125 -0.296875 L 0.328125 0 C 0.671875 -0.03125 1.390625 -0.03125 1.765625 -0.03125 C 2.140625 -0.03125 2.875 -0.03125 3.21875 0 L 3.21875 -0.296875 L 2.984375 -0.296875 C 2.21875 -0.296875 2.203125 -0.40625 2.203125 -0.765625 L 2.203125 -3.328125 L 5.140625 -3.328125 L 5.140625 -0.765625 C 5.140625 -0.40625 5.109375 -0.296875 4.359375 -0.296875 L 4.125 -0.296875 L 4.125 0 C 4.46875 -0.03125 5.1875 -0.03125 5.5625 -0.03125 C 5.9375 -0.03125 6.671875 -0.03125 7.015625 0 L 7.015625 -0.296875 L 6.78125 -0.296875 C 6.03125 -0.296875 6 -0.40625 6 -0.765625 Z M 6 -5.921875 "/>
</g>
<g id="glyph-0-1">
<path d="M 2.171875 -3.578125 L 2.171875 -6 C 2.171875 -6.3125 2.1875 -6.390625 2.65625 -6.390625 L 3.875 -6.390625 C 4.8125 -6.390625 5.15625 -5.5625 5.15625 -5.03125 C 5.15625 -4.40625 4.6875 -3.578125 3.59375 -3.578125 Z M 4.484375 -3.5 C 5.4375 -3.6875 6.109375 -4.3125 6.109375 -5.03125 C 6.109375 -5.890625 5.21875 -6.6875 3.9375 -6.6875 L 0.359375 -6.6875 L 0.359375 -6.390625 L 0.59375 -6.390625 C 1.34375 -6.390625 1.359375 -6.28125 1.359375 -5.921875 L 1.359375 -0.765625 C 1.359375 -0.40625 1.34375 -0.296875 0.59375 -0.296875 L 0.359375 -0.296875 L 0.359375 0 L 4.1875 0 C 5.5 0 6.375 -0.875 6.375 -1.796875 C 6.375 -2.640625 5.578125 -3.375 4.484375 -3.5 Z M 3.875 -0.296875 L 2.65625 -0.296875 C 2.1875 -0.296875 2.171875 -0.375 2.171875 -0.703125 L 2.171875 -3.375 L 4.015625 -3.375 C 4.984375 -3.375 5.390625 -2.453125 5.390625 -1.796875 C 5.390625 -1.109375 4.890625 -0.296875 3.875 -0.296875 Z M 3.875 -0.296875 "/>
</g>
<g id="glyph-0-2">
<path d="M 1.640625 -3.25 L 1.640625 -4.328125 L 0.28125 -4.21875 L 0.28125 -3.921875 C 0.953125 -3.921875 1.03125 -3.84375 1.03125 -3.375 L 1.03125 -0.75 C 1.03125 -0.296875 0.9375 -0.296875 0.28125 -0.296875 L 0.28125 0 C 0.65625 -0.015625 1.109375 -0.03125 1.390625 -0.03125 C 1.78125 -0.03125 2.25 -0.03125 2.640625 0 L 2.640625 -0.296875 L 2.421875 -0.296875 C 1.703125 -0.296875 1.6875 -0.40625 1.6875 -0.765625 L 1.6875 -2.265625 C 1.6875 -3.25 2.09375 -4.109375 2.84375 -4.109375 C 2.90625 -4.109375 2.921875 -4.109375 2.953125 -4.109375 C 2.921875 -4.09375 2.71875 -3.984375 2.71875 -3.71875 C 2.71875 -3.453125 2.921875 -3.296875 3.140625 -3.296875 C 3.328125 -3.296875 3.5625 -3.421875 3.5625 -3.734375 C 3.5625 -4.046875 3.265625 -4.328125 2.84375 -4.328125 C 2.125 -4.328125 1.765625 -3.671875 1.640625 -3.25 Z M 1.640625 -3.25 "/>
</g>
</g>
<clipPath id="clip-0">
<path clip-rule="nonzero" d="M 89 4 L 91.945312 4 L 91.945312 9 L 89 9 Z M 89 4 "/>
</clipPath>
<clipPath id="clip-1">
<path clip-rule="nonzero" d="M 84 0 L 91.945312 0 L 91.945312 12.574219 L 84 12.574219 Z M 84 0 "/>
</clipPath>
<clipPath id="clip-2">
<path clip-rule="nonzero" d="M 75 0 L 91.945312 0 L 91.945312 8 L 75 8 Z M 75 0 "/>
</clipPath>
<clipPath id="clip-3">
<path clip-rule="nonzero" d="M 75 4 L 91.945312 4 L 91.945312 12.574219 L 75 12.574219 Z M 75 4 "/>
</clipPath>
</defs>
<g fill="rgb(0%, 0%, 0%)" fill-opacity="1">
<use xlink:href="#glyph-0-0" x="62.308335" y="9.633989"/>
</g>
<g fill="rgb(0%, 0%, 0%)" fill-opacity="1">
<use xlink:href="#glyph-0-1" x="78.229594" y="9.633989"/>
<use xlink:href="#glyph-0-2" x="85.1694" y="9.633989"/>
</g>
<g clip-path="url(#clip-0)">
<path fill-rule="nonzero" fill="rgb(0%, 0%, 0%)" fill-opacity="1" d="M 90.476562 7.125 C 90.128906 7.125 89.84375 7.40625 89.84375 7.757812 C 89.84375 8.105469 90.128906 8.390625 90.476562 8.390625 C 90.824219 8.390625 91.109375 8.105469 91.109375 7.757812 C 91.109375 7.40625 90.824219 7.125 90.476562 7.125 Z M 90.476562 4.183594 C 90.128906 4.183594 89.84375 4.46875 89.84375 4.816406 C 89.84375 5.167969 90.128906 5.449219 90.476562 5.449219 C 90.824219 5.449219 91.109375 5.167969 91.109375 4.816406 C 91.109375 4.46875 90.824219 4.183594 90.476562 4.183594 Z M 90.476562 4.183594 "/>
</g>
<g clip-path="url(#clip-1)">
<path fill="none" stroke-width="0.3985" stroke-linecap="butt" stroke-linejoin="miter" stroke="rgb(0%, 0%, 0%)" stroke-opacity="1" stroke-miterlimit="10" d="M -0.0000791944 -0.852818 C -0.353582 -0.852818 -0.643533 -1.138798 -0.643533 -1.496272 C -0.643533 -1.849775 -0.353582 -2.139727 -0.0000791944 -2.139727 C 0.353423 -2.139727 0.643375 -1.849775 0.643375 -1.496272 C 0.643375 -1.138798 0.353423 -0.852818 -0.0000791944 -0.852818 Z M -0.0000791944 2.138053 C -0.353582 2.138053 -0.643533 1.848101 -0.643533 1.494598 C -0.643533 1.137124 -0.353582 0.851144 -0.0000791944 0.851144 C 0.353423 0.851144 0.643375 1.137124 0.643375 1.494598 C 0.643375 1.848101 0.353423 2.138053 -0.0000791944 2.138053 Z M -0.0000791944 2.138053 " transform="matrix(0.983462, 0, 0, -0.983462, 90.47664, 6.286286)"/>
</g>
<path fill-rule="nonzero" fill="rgb(0%, 0%, 0%)" fill-opacity="1" d="M 84.457031 1.46875 C 84.457031 1.820312 84.738281 2.101562 85.089844 2.101562 C 85.4375 2.101562 85.722656 1.820312 85.722656 1.46875 C 85.722656 1.121094 85.4375 0.835938 85.089844 0.835938 C 84.738281 0.835938 84.457031 1.121094 84.457031 1.46875 Z M 81.515625 1.46875 C 81.515625 1.820312 81.800781 2.101562 82.148438 2.101562 C 82.5 2.101562 82.78125 1.820312 82.78125 1.46875 C 82.78125 1.121094 82.5 0.835938 82.148438 0.835938 C 81.800781 0.835938 81.515625 1.121094 81.515625 1.46875 Z M 81.515625 1.46875 "/>
<g clip-path="url(#clip-2)">
<path fill="none" stroke-width="0.3985" stroke-linecap="butt" stroke-linejoin="miter" stroke="rgb(0%, 0%, 0%)" stroke-opacity="1" stroke-miterlimit="10" d="M 0.852162 0.000550645 C 0.852162 -0.356924 1.138141 -0.642904 1.495616 -0.642904 C 1.849118 -0.642904 2.13907 -0.356924 2.13907 0.000550645 C 2.13907 0.354053 1.849118 0.644005 1.495616 0.644005 C 1.138141 0.644005 0.852162 0.354053 0.852162 0.000550645 Z M -2.138709 0.000550645 C -2.138709 -0.356924 -1.848757 -0.642904 -1.495255 -0.642904 C -1.13778 -0.642904 -0.851801 -0.356924 -0.851801 0.000550645 C -0.851801 0.354053 -1.13778 0.644005 -1.495255 0.644005 C -1.848757 0.644005 -2.138709 0.354053 -2.138709 0.000550645 Z M -2.138709 0.000550645 " transform="matrix(0.983462, 0, 0, -0.983462, 83.618963, 1.469292)"/>
</g>
<path fill-rule="nonzero" fill="rgb(0%, 0%, 0%)" fill-opacity="1" d="M 82.78125 11.105469 C 82.78125 10.753906 82.5 10.472656 82.148438 10.472656 C 81.800781 10.472656 81.515625 10.753906 81.515625 11.105469 C 81.515625 11.453125 81.800781 11.738281 82.148438 11.738281 C 82.5 11.738281 82.78125 11.453125 82.78125 11.105469 Z M 85.722656 11.105469 C 85.722656 10.753906 85.4375 10.472656 85.089844 10.472656 C 84.738281 10.472656 84.457031 10.753906 84.457031 11.105469 C 84.457031 11.453125 84.738281 11.738281 85.089844 11.738281 C 85.4375 11.738281 85.722656 11.453125 85.722656 11.105469 Z M 85.722656 11.105469 "/>
<g clip-path="url(#clip-3)">
<path fill="none" stroke-width="0.3985" stroke-linecap="butt" stroke-linejoin="miter" stroke="rgb(0%, 0%, 0%)" stroke-opacity="1" stroke-miterlimit="10" d="M -0.851801 -0.00122478 C -0.851801 0.35625 -1.13778 0.642229 -1.495255 0.642229 C -1.848757 0.642229 -2.138709 0.35625 -2.138709 -0.00122478 C -2.138709 -0.354727 -1.848757 -0.644679 -1.495255 -0.644679 C -1.13778 -0.644679 -0.851801 -0.354727 -0.851801 -0.00122478 Z M 2.13907 -0.00122478 C 2.13907 0.35625 1.849118 0.642229 1.495616 0.642229 C 1.138141 0.642229 0.852162 0.35625 0.852162 -0.00122478 C 0.852162 -0.354727 1.138141 -0.644679 1.495616 -0.644679 C 1.849118 -0.644679 2.13907 -0.354727 2.13907 -0.00122478 Z M 2.13907 -0.00122478 " transform="matrix(0.983462, 0, 0, -0.983462, 83.618963, 11.104264)"/>
</g>
<path fill="none" stroke-width="0.3985" stroke-linecap="butt" stroke-linejoin="miter" stroke="rgb(0%, 0%, 0%)" stroke-opacity="1" stroke-miterlimit="10" d="M 5.729396 3.405149 L 10.459976 3.405149 " transform="matrix(0.983462, 0, 0, -0.983462, 65.982547, 9.633989)"/>
</svg>
